<svg xmlns='http://www.w3.org/2000/svg' width="512" height="512" viewBox="0 0 32 29" stroke="#fff"><title>alert</title><g id="Atoms" stroke="none" stroke-width="1" fill="none" fill-rule="evenodd"><g id="Icons" transform="translate(-123.000000, -2886.000000)" fill="#fff" fill-rule="nonzero"><g id="danger-svgrepo-com" transform="translate(123.194444, 2886.000000)"><path d="M0.805555556,29 L30.8055556,29 L15.7391146,0 L0.805555556,29 Z M4.57095009,26.8654875 L15.7391146,4.7938962 L27.0645752,26.8654875 L4.57095009,26.8654875 Z" id="Shape"></path><g id="Group" transform="translate(15.805556, 18.000000) scale(1, -1) translate(-15.805556, -18.000000) translate(14.805556, 12.000000)"><rect id="Rectangle" transform="translate(1.000000, 7.565217) scale(1, -1) rotate(180.000000) translate(-1.000000, -7.565217) " x="0" y="3.13043478" width="2" height="8.86956522"></rect><path d="M1,2.08695652 C1.5625,2.08695652 2,1.63043478 2,1.04347826 C2,0.456521739 1.5625,0 1,0 C0.4375,0 0,0.456521739 0,1.04347826 C0,1.63043478 0.4375,2.08695652 1,2.08695652" id="Path" transform="translate(1.000000, 1.043478) scale(1, -1) rotate(180.000000) translate(-1.000000, -1.043478) "></path></g></g></g></g></svg>